<mxfile host="app.diagrams.net" agent="Mozilla/5.0 (X11; Linux x86_64) AppleWebKit/537.36 (KHTML, like Gecko) Chrome/130.0.0.0 Safari/537.36" version="28.2.4">
  <diagram name="第 1 页" id="gW1jF0LuhxR1lC9v9nv5">
    <mxGraphModel dx="924" dy="519" grid="1" gridSize="10" guides="1" tooltips="1" connect="1" arrows="1" fold="1" page="1" pageScale="1" pageWidth="827" pageHeight="1169" math="0" shadow="0">
      <root>
        <mxCell id="0" />
        <mxCell id="1" parent="0" />
        <mxCell id="mN1szYBElsWgrVPT6xOc-8" value="" style="shape=curlyBrace;direction=east;rounded=1;strokeColor=#E0B0FF;strokeWidth=2;dashed=1;" vertex="1" parent="1">
          <mxGeometry x="430" y="720" width="730" height="100" as="geometry" />
        </mxCell>
        <mxCell id="mN1szYBElsWgrVPT6xOc-2" value="" style="endArrow=classic;html=1;rounded=0;strokeColor=#B85450;strokeWidth=3;" edge="1" parent="1">
          <mxGeometry width="50" height="50" relative="1" as="geometry">
            <mxPoint x="410" y="280" as="sourcePoint" />
            <mxPoint x="410" y="1130" as="targetPoint" />
          </mxGeometry>
        </mxCell>
        <mxCell id="mN1szYBElsWgrVPT6xOc-3" value="" style="endArrow=none;html=1;rounded=0;strokeColor=#F0A30A;strokeWidth=3;dashed=1;" edge="1" parent="1">
          <mxGeometry width="50" height="50" relative="1" as="geometry">
            <mxPoint x="860" y="300" as="sourcePoint" />
            <mxPoint x="860" y="1080" as="targetPoint" />
          </mxGeometry>
        </mxCell>
        <mxCell id="mN1szYBElsWgrVPT6xOc-4" value="" style="endArrow=none;html=1;rounded=0;strokeColor=#FFFFFF;strokeWidth=1;dashed=1;" edge="1" parent="1">
          <mxGeometry width="50" height="50" relative="1" as="geometry">
            <mxPoint x="430" y="720" as="sourcePoint" />
            <mxPoint x="1060" y="720" as="targetPoint" />
          </mxGeometry>
        </mxCell>
        <mxCell id="mN1szYBElsWgrVPT6xOc-5" value="" style="endArrow=none;html=1;rounded=0;strokeColor=#FFFFFF;strokeWidth=1;dashed=1;dashPattern=1 4;" edge="1" parent="1">
          <mxGeometry width="50" height="50" relative="1" as="geometry">
            <mxPoint x="430" y="820" as="sourcePoint" />
            <mxPoint x="1060" y="820" as="targetPoint" />
          </mxGeometry>
        </mxCell>
        <mxCell id="mN1szYBElsWgrVPT6xOc-6" value="" style="shape=curlyBrace;direction=west;rounded=1;strokeColor=#87CEEB;strokeWidth=2;" vertex="1" parent="1">
          <mxGeometry x="350" y="300" width="20" height="780" as="geometry" />
        </mxCell>
        <mxCell id="mN1szYBElsWgrVPT6xOc-53" value="" style="edgeStyle=orthogonalEdgeStyle;rounded=0;orthogonalLoop=1;jettySize=auto;html=1;" edge="1" parent="1" source="mN1szYBElsWgrVPT6xOc-9" target="mN1szYBElsWgrVPT6xOc-12">
          <mxGeometry relative="1" as="geometry" />
        </mxCell>
        <mxCell id="mN1szYBElsWgrVPT6xOc-9" value="User&lt;br&gt;func call&lt;br&gt;AllReduce" style="rounded=1;whiteSpace=wrap;html=1;fillColor=#FFFFFF;strokeColor=#000000;fontColor=#000000;" vertex="1" parent="1">
          <mxGeometry x="460" y="310" width="120" height="50" as="geometry" />
        </mxCell>
        <mxCell id="mN1szYBElsWgrVPT6xOc-10" value="CCL&lt;br&gt;Prepare" style="rounded=1;whiteSpace=wrap;html=1;fillColor=#FFFFFF;strokeColor=#000000;fontColor=#000000;" vertex="1" parent="1">
          <mxGeometry x="460" y="370" width="120" height="40" as="geometry" />
        </mxCell>
        <mxCell id="mN1szYBElsWgrVPT6xOc-11" value="Kernel&lt;br&gt;Launch" style="rounded=1;whiteSpace=wrap;html=1;fillColor=#FFFFFF;strokeColor=#000000;fontColor=#000000;" vertex="1" parent="1">
          <mxGeometry x="460" y="420" width="120" height="40" as="geometry" />
        </mxCell>
        <mxCell id="mN1szYBElsWgrVPT6xOc-12" value="Driver&lt;br&gt;&lt;span style=&quot;font-size: 9px;&quot;&gt;(runtime/UMD/KMD)&lt;/span&gt;" style="rounded=1;whiteSpace=wrap;html=1;fillColor=#FFFFFF;strokeColor=#000000;fontColor=#000000;" vertex="1" parent="1">
          <mxGeometry x="460" y="470" width="120" height="40" as="geometry" />
        </mxCell>
        <mxCell id="mN1szYBElsWgrVPT6xOc-13" value="Driver" style="rounded=1;whiteSpace=wrap;html=1;fillColor=#FFFFFF;strokeColor=#000000;fontColor=#000000;" vertex="1" parent="1">
          <mxGeometry x="460" y="980" width="120" height="30" as="geometry" />
        </mxCell>
        <mxCell id="mN1szYBElsWgrVPT6xOc-14" value="User&lt;br&gt;WaitStream&lt;br&gt;Done" style="rounded=1;whiteSpace=wrap;html=1;fillColor=#FFFFFF;strokeColor=#000000;fontColor=#000000;" vertex="1" parent="1">
          <mxGeometry x="460" y="1020" width="120" height="50" as="geometry" />
        </mxCell>
        <mxCell id="mN1szYBElsWgrVPT6xOc-15" value="User&lt;br&gt;func call&lt;br&gt;AllReduce" style="rounded=1;whiteSpace=wrap;html=1;fillColor=#FFFFFF;strokeColor=#000000;fontColor=#000000;" vertex="1" parent="1">
          <mxGeometry x="1160" y="310" width="120" height="50" as="geometry" />
        </mxCell>
        <mxCell id="mN1szYBElsWgrVPT6xOc-16" value="CCL&lt;br&gt;Prepare" style="rounded=1;whiteSpace=wrap;html=1;fillColor=#FFFFFF;strokeColor=#000000;fontColor=#000000;" vertex="1" parent="1">
          <mxGeometry x="1160" y="370" width="120" height="40" as="geometry" />
        </mxCell>
        <mxCell id="mN1szYBElsWgrVPT6xOc-17" value="Kernel&lt;br&gt;Launch" style="rounded=1;whiteSpace=wrap;html=1;fillColor=#FFFFFF;strokeColor=#000000;fontColor=#000000;" vertex="1" parent="1">
          <mxGeometry x="1160" y="420" width="120" height="40" as="geometry" />
        </mxCell>
        <mxCell id="mN1szYBElsWgrVPT6xOc-18" value="Driver&lt;br&gt;&lt;span style=&quot;font-size: 9px;&quot;&gt;(runtime/UMD/KMD)&lt;/span&gt;" style="rounded=1;whiteSpace=wrap;html=1;fillColor=#FFFFFF;strokeColor=#000000;fontColor=#000000;" vertex="1" parent="1">
          <mxGeometry x="1160" y="470" width="120" height="40" as="geometry" />
        </mxCell>
        <mxCell id="mN1szYBElsWgrVPT6xOc-19" value="Driver" style="rounded=1;whiteSpace=wrap;html=1;fillColor=#FFFFFF;strokeColor=#000000;fontColor=#000000;" vertex="1" parent="1">
          <mxGeometry x="1160" y="980" width="120" height="30" as="geometry" />
        </mxCell>
        <mxCell id="mN1szYBElsWgrVPT6xOc-20" value="User&lt;br&gt;WaitStream&lt;br&gt;Done" style="rounded=1;whiteSpace=wrap;html=1;fillColor=#FFFFFF;strokeColor=#000000;fontColor=#000000;" vertex="1" parent="1">
          <mxGeometry x="1160" y="1020" width="120" height="50" as="geometry" />
        </mxCell>
        <mxCell id="mN1szYBElsWgrVPT6xOc-21" value="FW" style="rounded=1;whiteSpace=wrap;html=1;fillColor=#FFFFFF;strokeColor=#000000;fontColor=#000000;" vertex="1" parent="1">
          <mxGeometry x="645" y="470" width="50" height="30" as="geometry" />
        </mxCell>
        <mxCell id="mN1szYBElsWgrVPT6xOc-22" value="" style="rounded=1;whiteSpace=wrap;html=1;fillColor=#FFFFFF;strokeColor=#000000;" vertex="1" parent="1">
          <mxGeometry x="640" y="515" width="60" height="450" as="geometry" />
        </mxCell>
        <mxCell id="mN1szYBElsWgrVPT6xOc-24" value="Data&lt;br&gt;Transfer" style="rounded=1;whiteSpace=wrap;html=1;fillColor=#DAE8FC;strokeColor=#6C8EBF;" vertex="1" parent="1">
          <mxGeometry x="710" y="550" width="100" height="50" as="geometry" />
        </mxCell>
        <mxCell id="mN1szYBElsWgrVPT6xOc-25" value="Data&lt;br&gt;Transfer" style="rounded=1;whiteSpace=wrap;html=1;fillColor=#FFE6CC;strokeColor=#D79B00;" vertex="1" parent="1">
          <mxGeometry x="710" y="650" width="100" height="50" as="geometry" />
        </mxCell>
        <mxCell id="mN1szYBElsWgrVPT6xOc-26" value="Data&lt;br&gt;Transfer" style="rounded=1;whiteSpace=wrap;html=1;fillColor=#F8CECC;strokeColor=#B85450;" vertex="1" parent="1">
          <mxGeometry x="710" y="750" width="100" height="50" as="geometry" />
        </mxCell>
        <mxCell id="mN1szYBElsWgrVPT6xOc-27" value="Data&lt;br&gt;Transfer" style="rounded=1;whiteSpace=wrap;html=1;fillColor=#E1D5E7;strokeColor=#9673A6;" vertex="1" parent="1">
          <mxGeometry x="710" y="850" width="100" height="50" as="geometry" />
        </mxCell>
        <mxCell id="mN1szYBElsWgrVPT6xOc-28" value="FW" style="rounded=1;whiteSpace=wrap;html=1;fillColor=#FFFFFF;strokeColor=#000000;fontColor=#000000;" vertex="1" parent="1">
          <mxGeometry x="1060" y="470" width="50" height="30" as="geometry" />
        </mxCell>
        <mxCell id="mN1szYBElsWgrVPT6xOc-30" value="Shader/CE" style="text;html=1;align=center;verticalAlign=middle;resizable=0;points=[];autosize=1;strokeColor=none;fillColor=none;fontColor=#FFFFFF;" vertex="1" parent="1">
          <mxGeometry x="1070" y="725" width="80" height="30" as="geometry" />
        </mxCell>
        <mxCell id="mN1szYBElsWgrVPT6xOc-31" value="Data&lt;br&gt;Transfer" style="rounded=1;whiteSpace=wrap;html=1;fillColor=#DAE8FC;strokeColor=#6C8EBF;" vertex="1" parent="1">
          <mxGeometry x="910" y="550" width="100" height="50" as="geometry" />
        </mxCell>
        <mxCell id="mN1szYBElsWgrVPT6xOc-32" value="Data&lt;br&gt;Transfer" style="rounded=1;whiteSpace=wrap;html=1;fillColor=#FFE6CC;strokeColor=#D79B00;" vertex="1" parent="1">
          <mxGeometry x="910" y="650" width="100" height="50" as="geometry" />
        </mxCell>
        <mxCell id="mN1szYBElsWgrVPT6xOc-33" value="Data&lt;br&gt;Transfer" style="rounded=1;whiteSpace=wrap;html=1;fillColor=#F8CECC;strokeColor=#B85450;" vertex="1" parent="1">
          <mxGeometry x="910" y="750" width="100" height="50" as="geometry" />
        </mxCell>
        <mxCell id="mN1szYBElsWgrVPT6xOc-34" value="Data&lt;br&gt;Transfer" style="rounded=1;whiteSpace=wrap;html=1;fillColor=#E1D5E7;strokeColor=#9673A6;" vertex="1" parent="1">
          <mxGeometry x="910" y="850" width="100" height="50" as="geometry" />
        </mxCell>
        <mxCell id="mN1szYBElsWgrVPT6xOc-35" value="" style="endArrow=classic;html=1;rounded=0;strokeColor=#82B366;strokeWidth=2;" edge="1" parent="1">
          <mxGeometry width="50" height="50" relative="1" as="geometry">
            <mxPoint x="810" y="765" as="sourcePoint" />
            <mxPoint x="910" y="765" as="targetPoint" />
          </mxGeometry>
        </mxCell>
        <mxCell id="mN1szYBElsWgrVPT6xOc-36" value="" style="endArrow=classic;html=1;rounded=0;strokeColor=#82B366;strokeWidth=2;" edge="1" parent="1">
          <mxGeometry width="50" height="50" relative="1" as="geometry">
            <mxPoint x="910" y="785" as="sourcePoint" />
            <mxPoint x="810" y="785" as="targetPoint" />
          </mxGeometry>
        </mxCell>
        <mxCell id="mN1szYBElsWgrVPT6xOc-37" value="" style="endArrow=classic;html=1;rounded=0;strokeColor=#82B366;strokeWidth=2;" edge="1" parent="1">
          <mxGeometry width="50" height="50" relative="1" as="geometry">
            <mxPoint x="810" y="865" as="sourcePoint" />
            <mxPoint x="910" y="865" as="targetPoint" />
          </mxGeometry>
        </mxCell>
        <mxCell id="mN1szYBElsWgrVPT6xOc-38" value="" style="endArrow=classic;html=1;rounded=0;strokeColor=#82B366;strokeWidth=2;" edge="1" parent="1">
          <mxGeometry width="50" height="50" relative="1" as="geometry">
            <mxPoint x="910" y="885" as="sourcePoint" />
            <mxPoint x="810" y="885" as="targetPoint" />
          </mxGeometry>
        </mxCell>
        <mxCell id="mN1szYBElsWgrVPT6xOc-39" value="" style="rounded=1;whiteSpace=wrap;html=1;fillColor=#FFFFFF;strokeColor=#000000;" vertex="1" parent="1">
          <mxGeometry x="1060" y="515" width="60" height="450" as="geometry" />
        </mxCell>
        <mxCell id="mN1szYBElsWgrVPT6xOc-40" value="&lt;b&gt;CPU&lt;/b&gt;" style="text;html=1;align=center;verticalAlign=middle;resizable=0;points=[];autosize=1;strokeColor=none;fillColor=none;" vertex="1" parent="1">
          <mxGeometry x="485" y="248" width="50" height="30" as="geometry" />
        </mxCell>
        <mxCell id="mN1szYBElsWgrVPT6xOc-41" value="&lt;b&gt;GPU&lt;/b&gt;" style="text;html=1;align=center;verticalAlign=middle;resizable=0;points=[];autosize=1;strokeColor=none;fillColor=none;" vertex="1" parent="1">
          <mxGeometry x="640" y="248" width="50" height="30" as="geometry" />
        </mxCell>
        <mxCell id="mN1szYBElsWgrVPT6xOc-43" value="&lt;b&gt;Link&lt;/b&gt;" style="text;html=1;align=center;verticalAlign=middle;resizable=0;points=[];autosize=1;strokeColor=none;fillColor=none;" vertex="1" parent="1">
          <mxGeometry x="750" y="248" width="50" height="30" as="geometry" />
        </mxCell>
        <mxCell id="mN1szYBElsWgrVPT6xOc-44" value="&lt;b&gt;CPU&lt;/b&gt;" style="text;html=1;align=center;verticalAlign=middle;resizable=0;points=[];autosize=1;strokeColor=none;fillColor=none;" vertex="1" parent="1">
          <mxGeometry x="1180" y="248" width="50" height="30" as="geometry" />
        </mxCell>
        <mxCell id="mN1szYBElsWgrVPT6xOc-45" value="&lt;b&gt;GPU&lt;/b&gt;" style="text;html=1;align=center;verticalAlign=middle;resizable=0;points=[];autosize=1;strokeColor=none;fillColor=none;" vertex="1" parent="1">
          <mxGeometry x="1040" y="248" width="50" height="30" as="geometry" />
        </mxCell>
        <mxCell id="mN1szYBElsWgrVPT6xOc-46" value="&lt;b&gt;Link&lt;/b&gt;" style="text;html=1;align=center;verticalAlign=middle;resizable=0;points=[];autosize=1;strokeColor=none;fillColor=none;" vertex="1" parent="1">
          <mxGeometry x="920" y="248" width="50" height="30" as="geometry" />
        </mxCell>
        <mxCell id="mN1szYBElsWgrVPT6xOc-47" value="Shader" style="text;html=1;align=center;verticalAlign=middle;resizable=0;points=[];autosize=1;strokeColor=none;fillColor=none;" vertex="1" parent="1">
          <mxGeometry x="640" y="730" width="60" height="30" as="geometry" />
        </mxCell>
        <mxCell id="mN1szYBElsWgrVPT6xOc-48" value="Shader" style="text;html=1;align=center;verticalAlign=middle;resizable=0;points=[];autosize=1;strokeColor=none;fillColor=none;" vertex="1" parent="1">
          <mxGeometry x="1060" y="740" width="60" height="30" as="geometry" />
        </mxCell>
      </root>
    </mxGraphModel>
  </diagram>
</mxfile>
